<mxfile host="app.diagrams.net" agent="Mozilla/5.0 (Macintosh; Intel Mac OS X 10_15_7) AppleWebKit/605.1.15 (KHTML, like Gecko) Version/18.1.1 Safari/605.1.15" version="25.0.1">
  <diagram name="Page-1" id="Q2PYPdYS5An1jqye3cPU">
    <mxGraphModel dx="1242" dy="1350" grid="1" gridSize="10" guides="1" tooltips="1" connect="1" arrows="1" fold="1" page="1" pageScale="1" pageWidth="827" pageHeight="1169" math="0" shadow="0">
      <root>
        <mxCell id="0" />
        <mxCell id="1" parent="0" />
        <mxCell id="fqlUsgwOQj-Of0_AYswb-1" value="Job" style="rounded=0;whiteSpace=wrap;html=1;" vertex="1" parent="1">
          <mxGeometry x="150" y="380" width="120" height="60" as="geometry" />
        </mxCell>
        <mxCell id="fqlUsgwOQj-Of0_AYswb-2" value="Skills" style="rounded=0;whiteSpace=wrap;html=1;" vertex="1" parent="1">
          <mxGeometry x="400" y="680" width="120" height="60" as="geometry" />
        </mxCell>
        <mxCell id="fqlUsgwOQj-Of0_AYswb-3" value="Industry Domain" style="rounded=0;whiteSpace=wrap;html=1;" vertex="1" parent="1">
          <mxGeometry x="610" y="380" width="120" height="60" as="geometry" />
        </mxCell>
        <mxCell id="fqlUsgwOQj-Of0_AYswb-4" value="Company" style="rounded=0;whiteSpace=wrap;html=1;" vertex="1" parent="1">
          <mxGeometry x="610" y="70" width="120" height="60" as="geometry" />
        </mxCell>
        <mxCell id="fqlUsgwOQj-Of0_AYswb-5" value="Benefit" style="rounded=0;whiteSpace=wrap;html=1;" vertex="1" parent="1">
          <mxGeometry x="150" y="70" width="120" height="60" as="geometry" />
        </mxCell>
        <mxCell id="fqlUsgwOQj-Of0_AYswb-16" value="" style="edgeStyle=orthogonalEdgeStyle;rounded=0;orthogonalLoop=1;jettySize=auto;html=1;" edge="1" parent="1" source="fqlUsgwOQj-Of0_AYswb-6" target="fqlUsgwOQj-Of0_AYswb-3">
          <mxGeometry relative="1" as="geometry" />
        </mxCell>
        <mxCell id="fqlUsgwOQj-Of0_AYswb-30" value="(1 n)" style="edgeLabel;html=1;align=center;verticalAlign=middle;resizable=0;points=[];" vertex="1" connectable="0" parent="fqlUsgwOQj-Of0_AYswb-16">
          <mxGeometry x="0.3636" y="-1" relative="1" as="geometry">
            <mxPoint x="31" y="15" as="offset" />
          </mxGeometry>
        </mxCell>
        <mxCell id="fqlUsgwOQj-Of0_AYswb-23" style="edgeStyle=orthogonalEdgeStyle;rounded=0;orthogonalLoop=1;jettySize=auto;html=1;entryX=0.5;entryY=1;entryDx=0;entryDy=0;" edge="1" parent="1" source="fqlUsgwOQj-Of0_AYswb-6" target="fqlUsgwOQj-Of0_AYswb-4">
          <mxGeometry relative="1" as="geometry" />
        </mxCell>
        <mxCell id="fqlUsgwOQj-Of0_AYswb-31" value="(1 1)" style="edgeLabel;html=1;align=center;verticalAlign=middle;resizable=0;points=[];" vertex="1" connectable="0" parent="fqlUsgwOQj-Of0_AYswb-23">
          <mxGeometry x="0.2714" y="3" relative="1" as="geometry">
            <mxPoint x="23" y="-21" as="offset" />
          </mxGeometry>
        </mxCell>
        <mxCell id="fqlUsgwOQj-Of0_AYswb-6" value="Operates" style="rhombus;whiteSpace=wrap;html=1;" vertex="1" parent="1">
          <mxGeometry x="630" y="260" width="80" height="80" as="geometry" />
        </mxCell>
        <mxCell id="fqlUsgwOQj-Of0_AYswb-11" value="" style="edgeStyle=orthogonalEdgeStyle;rounded=0;orthogonalLoop=1;jettySize=auto;html=1;" edge="1" parent="1" source="fqlUsgwOQj-Of0_AYswb-7" target="fqlUsgwOQj-Of0_AYswb-1">
          <mxGeometry relative="1" as="geometry" />
        </mxCell>
        <mxCell id="fqlUsgwOQj-Of0_AYswb-26" value="(1 n)" style="edgeLabel;html=1;align=center;verticalAlign=middle;resizable=0;points=[];" vertex="1" connectable="0" parent="fqlUsgwOQj-Of0_AYswb-11">
          <mxGeometry x="0.3333" y="-3" relative="1" as="geometry">
            <mxPoint x="23" y="10" as="offset" />
          </mxGeometry>
        </mxCell>
        <mxCell id="fqlUsgwOQj-Of0_AYswb-22" value="" style="edgeStyle=orthogonalEdgeStyle;rounded=0;orthogonalLoop=1;jettySize=auto;html=1;" edge="1" parent="1" source="fqlUsgwOQj-Of0_AYswb-7" target="fqlUsgwOQj-Of0_AYswb-5">
          <mxGeometry relative="1" as="geometry" />
        </mxCell>
        <mxCell id="fqlUsgwOQj-Of0_AYswb-25" value="(1 n&lt;span data-darkreader-inline-bgcolor=&quot;&quot; data-darkreader-inline-color=&quot;&quot; style=&quot;color: rgb(0, 0, 0); background-color: rgb(255, 255, 255); --darkreader-inline-color: #e8e6e3; --darkreader-inline-bgcolor: #181a1b;&quot;&gt;)&lt;/span&gt;" style="edgeLabel;html=1;align=center;verticalAlign=middle;resizable=0;points=[];" vertex="1" connectable="0" parent="fqlUsgwOQj-Of0_AYswb-22">
          <mxGeometry x="0.45" y="4" relative="1" as="geometry">
            <mxPoint x="24" y="-12" as="offset" />
          </mxGeometry>
        </mxCell>
        <mxCell id="fqlUsgwOQj-Of0_AYswb-7" value="Offers" style="rhombus;whiteSpace=wrap;html=1;" vertex="1" parent="1">
          <mxGeometry x="170" y="210" width="80" height="80" as="geometry" />
        </mxCell>
        <mxCell id="fqlUsgwOQj-Of0_AYswb-19" value="" style="edgeStyle=orthogonalEdgeStyle;rounded=0;orthogonalLoop=1;jettySize=auto;html=1;" edge="1" parent="1" source="fqlUsgwOQj-Of0_AYswb-9" target="fqlUsgwOQj-Of0_AYswb-2">
          <mxGeometry relative="1" as="geometry" />
        </mxCell>
        <mxCell id="fqlUsgwOQj-Of0_AYswb-28" value="(1 n)" style="edgeLabel;html=1;align=center;verticalAlign=middle;resizable=0;points=[];" vertex="1" connectable="0" parent="fqlUsgwOQj-Of0_AYswb-19">
          <mxGeometry x="0.4054" y="-3" relative="1" as="geometry">
            <mxPoint x="-2" y="7" as="offset" />
          </mxGeometry>
        </mxCell>
        <mxCell id="fqlUsgwOQj-Of0_AYswb-20" style="edgeStyle=orthogonalEdgeStyle;rounded=0;orthogonalLoop=1;jettySize=auto;html=1;entryX=0.5;entryY=1;entryDx=0;entryDy=0;" edge="1" parent="1" source="fqlUsgwOQj-Of0_AYswb-9" target="fqlUsgwOQj-Of0_AYswb-1">
          <mxGeometry relative="1" as="geometry" />
        </mxCell>
        <mxCell id="fqlUsgwOQj-Of0_AYswb-27" value="(1 n)" style="edgeLabel;html=1;align=center;verticalAlign=middle;resizable=0;points=[];" vertex="1" connectable="0" parent="fqlUsgwOQj-Of0_AYswb-20">
          <mxGeometry x="-0.8182" y="3" relative="1" as="geometry">
            <mxPoint x="23" as="offset" />
          </mxGeometry>
        </mxCell>
        <mxCell id="fqlUsgwOQj-Of0_AYswb-9" value="Requires" style="rhombus;whiteSpace=wrap;html=1;" vertex="1" parent="1">
          <mxGeometry x="170" y="670" width="80" height="80" as="geometry" />
        </mxCell>
        <mxCell id="fqlUsgwOQj-Of0_AYswb-18" value="" style="edgeStyle=orthogonalEdgeStyle;rounded=0;orthogonalLoop=1;jettySize=auto;html=1;" edge="1" parent="1" source="fqlUsgwOQj-Of0_AYswb-10" target="fqlUsgwOQj-Of0_AYswb-3">
          <mxGeometry relative="1" as="geometry" />
        </mxCell>
        <mxCell id="fqlUsgwOQj-Of0_AYswb-29" value="(1 n)" style="edgeLabel;html=1;align=center;verticalAlign=middle;resizable=0;points=[];" vertex="1" connectable="0" parent="fqlUsgwOQj-Of0_AYswb-18">
          <mxGeometry x="0.3448" y="-1" relative="1" as="geometry">
            <mxPoint x="8" y="-21" as="offset" />
          </mxGeometry>
        </mxCell>
        <mxCell id="fqlUsgwOQj-Of0_AYswb-33" style="edgeStyle=orthogonalEdgeStyle;rounded=0;orthogonalLoop=1;jettySize=auto;html=1;entryX=1;entryY=0.5;entryDx=0;entryDy=0;" edge="1" parent="1" source="fqlUsgwOQj-Of0_AYswb-10" target="fqlUsgwOQj-Of0_AYswb-1">
          <mxGeometry relative="1" as="geometry" />
        </mxCell>
        <mxCell id="fqlUsgwOQj-Of0_AYswb-34" value="(1 1)" style="edgeLabel;html=1;align=center;verticalAlign=middle;resizable=0;points=[];" vertex="1" connectable="0" parent="fqlUsgwOQj-Of0_AYswb-33">
          <mxGeometry x="0.3833" y="3" relative="1" as="geometry">
            <mxPoint x="-7" y="-23" as="offset" />
          </mxGeometry>
        </mxCell>
        <mxCell id="fqlUsgwOQj-Of0_AYswb-10" value="Belongs_to" style="rhombus;whiteSpace=wrap;html=1;" vertex="1" parent="1">
          <mxGeometry x="390" y="370" width="80" height="80" as="geometry" />
        </mxCell>
      </root>
    </mxGraphModel>
  </diagram>
</mxfile>
